<svg width="76" height="61" viewBox="0 0 76 61" fill="none" xmlns="http://www.w3.org/2000/svg">
<path fill-rule="evenodd" clip-rule="evenodd" d="M35.3621 47.0802C30.7269 48.5874 25.7846 48.1976 21.4402 45.9834C17.0958 43.7676 13.8777 39.9989 12.3705 35.3622C10.8662 30.7284 11.256 25.7846 13.4688 21.4402C15.6831 17.0973 19.4562 13.8777 24.09 12.372C28.7178 10.8692 33.6601 11.2619 38.0075 13.4776C39.7509 14.3663 41.3127 15.503 42.6545 16.8478C44.6621 18.8539 46.1797 21.3177 47.0801 24.0915C47.6736 25.9175 47.9747 27.8085 47.9747 29.7128C47.9732 37.6517 42.9055 44.6297 35.3621 47.0802M57.9951 20.5442C52.9347 4.95412 36.1312 -3.60483 20.5441 1.45555C8.25486 5.44717 -0.00147287 16.8168 3.3248e-06 29.7467C-0.00147287 32.8497 0.488622 35.932 1.45553 38.908C2.92581 43.4384 5.40286 47.4595 8.6741 50.7323C10.8589 52.917 13.3979 54.7667 16.2292 56.2089C23.3017 59.8153 31.3558 60.45 38.908 57.9966C54.4965 52.9318 63.0599 36.1327 57.9951 20.5442" fill="white"/>
<path fill-rule="evenodd" clip-rule="evenodd" d="M31.6831 38.7363L38.7245 31.6948L60.9338 53.9056L53.8939 60.947L31.6831 38.7363Z" fill="#25CAE9"/>
<path fill-rule="evenodd" clip-rule="evenodd" d="M65.8174 53.9113H75.7743V43.9514H65.8174V53.9113Z" fill="#F73F54"/>
</svg>
